<svg width="21" height="20" viewBox="0 0 21 20" fill="none" xmlns="http://www.w3.org/2000/svg">
<g id="003-instagram 1">
<path id="Vector" d="M12.0979 10C12.0979 10.9708 11.3109 11.7578 10.3401 11.7578C9.36932 11.7578 8.58228 10.9708 8.58228 10C8.58228 9.02924 9.36932 8.24219 10.3401 8.24219C11.3109 8.24219 12.0979 9.02924 12.0979 10Z" fill="white"/>
<path id="Vector_2" d="M13.3088 4.6875H7.37134C6.07892 4.6875 5.02759 5.73883 5.02759 7.03125V12.9688C5.02759 14.2612 6.07892 15.3125 7.37134 15.3125H13.3088C14.6013 15.3125 15.6526 14.2612 15.6526 12.9688V7.03125C15.6526 5.73883 14.6013 4.6875 13.3088 4.6875ZM10.3401 12.9297C8.72464 12.9297 7.4104 11.6154 7.4104 10C7.4104 8.38455 8.72464 7.07031 10.3401 7.07031C11.9555 7.07031 13.2698 8.38455 13.2698 10C13.2698 11.6154 11.9555 12.9297 10.3401 12.9297ZM13.6995 7.22656C13.3758 7.22656 13.1135 6.96426 13.1135 6.64062C13.1135 6.31699 13.3758 6.05469 13.6995 6.05469C14.0231 6.05469 14.2854 6.31699 14.2854 6.64062C14.2854 6.96426 14.0231 7.22656 13.6995 7.22656Z" fill="white"/>
<path id="Vector_3" d="M15.0667 0H5.61353C2.70581 0 0.340088 2.36572 0.340088 5.27344V14.7266C0.340088 17.6343 2.70581 20 5.61353 20H15.0667C17.9744 20 20.3401 17.6343 20.3401 14.7266V5.27344C20.3401 2.36572 17.9744 0 15.0667 0ZM16.8245 12.9688C16.8245 14.9072 15.2473 16.4844 13.3088 16.4844H7.37134C5.43286 16.4844 3.85571 14.9072 3.85571 12.9688V7.03125C3.85571 5.09277 5.43286 3.51562 7.37134 3.51562H13.3088C15.2473 3.51562 16.8245 5.09277 16.8245 7.03125V12.9688Z" fill="white"/>
</g>
</svg>
