<svg width="21" height="20" viewBox="0 0 21 20" fill="none" xmlns="http://www.w3.org/2000/svg">
<g id="004-line 1">
<path id="Vector" d="M10.3401 0.416504C4.82759 0.416504 0.340088 4.0815 0.340088 8.58567C0.340088 12.6198 3.89842 15.9998 8.70259 16.6423C9.02842 16.7115 9.47176 16.859 9.58425 17.1373C9.68425 17.3898 9.65009 17.7798 9.61592 18.0432L9.47925 18.8982C9.44175 19.1507 9.27925 19.8923 10.3534 19.439C11.4293 18.9873 16.1168 16.019 18.2168 13.5898C19.6534 12.0065 20.3401 10.384 20.3401 8.58567C20.3401 4.0815 15.8526 0.416504 10.3401 0.416504ZM6.42592 11.264H4.43759C4.15009 11.264 3.91259 11.0248 3.91259 10.7365V6.73567C3.91259 6.4465 4.15009 6.20734 4.43759 6.20734C4.72759 6.20734 4.96259 6.4465 4.96259 6.73567V10.2082H6.42592C6.71592 10.2082 6.95009 10.4457 6.95009 10.7365C6.95009 11.0248 6.71509 11.264 6.42592 11.264ZM8.48092 10.7365C8.48092 11.0248 8.24592 11.264 7.95509 11.264C7.66759 11.264 7.43259 11.0248 7.43259 10.7365V6.73567C7.43259 6.4465 7.66759 6.20734 7.95759 6.20734C8.24592 6.20734 8.48092 6.4465 8.48092 6.73567V10.7365ZM13.2651 10.7365C13.2651 10.9632 13.1201 11.164 12.9051 11.2365C12.8518 11.254 12.7943 11.2623 12.7393 11.2623C12.5634 11.2623 12.4134 11.1865 12.3143 11.0523L10.2784 8.27067V10.7357C10.2784 11.024 10.0459 11.2632 9.75259 11.2632C9.46425 11.2632 9.23092 11.024 9.23092 10.7357V6.73567C9.23092 6.509 9.37509 6.30817 9.58925 6.2365C9.63925 6.21734 9.70259 6.209 9.75092 6.209C9.91342 6.209 10.0634 6.2965 10.1634 6.42234L12.2151 9.21484V6.73567C12.2151 6.4465 12.4501 6.20734 12.7401 6.20734C13.0276 6.20734 13.2651 6.4465 13.2651 6.73567V10.7365ZM16.4776 8.20734C16.7684 8.20734 17.0026 8.4465 17.0026 8.7365C17.0026 9.02567 16.7684 9.26484 16.4776 9.26484H15.0151V10.2082H16.4776C16.7684 10.2082 17.0026 10.4457 17.0026 10.7365C17.0026 11.0248 16.7684 11.264 16.4776 11.264H14.4893C14.2018 11.264 13.9668 11.0248 13.9668 10.7365V6.73567C13.9668 6.4465 14.2018 6.20734 14.4918 6.20734H16.4801C16.7684 6.20734 17.0026 6.4465 17.0026 6.73567C17.0026 7.02817 16.7684 7.264 16.4776 7.264H15.0151V8.20734H16.4776Z" fill="white"/>
</g>
</svg>
