<svg width="50" height="50" viewBox="0 0 50 50" fill="none" xmlns="http://www.w3.org/2000/svg">
<g id="Loading">
<g id="Group 47638">
<path id="Ellipse 32" d="M50 25C50 38.8071 38.8071 50 25 50C11.1929 50 0 38.8071 0 25C0 11.1929 11.1929 0 25 0C38.8071 0 50 11.1929 50 25ZM5.84476 25C5.84476 35.5791 14.4209 44.1552 25 44.1552C35.5791 44.1552 44.1552 35.5791 44.1552 25C44.1552 14.4209 35.5791 5.84476 25 5.84476C14.4209 5.84476 5.84476 14.4209 5.84476 25Z" fill="url(#paint0_angular_1_1457)"/>
<ellipse id="Ellipse 31" cx="24.9167" cy="47.0833" rx="2.91667" ry="2.91667" fill="#E30713"/>
</g>
</g>
<defs>
<radialGradient id="paint0_angular_1_1457" cx="0" cy="0" r="1" gradientUnits="userSpaceOnUse" gradientTransform="translate(25 25) rotate(90) scale(25)">
<stop stop-color="#E30713"/>
<stop offset="1" stop-color="#D9D9D9" stop-opacity="0"/>
</radialGradient>
</defs>
</svg>
