<svg width="21" height="20" viewBox="0 0 21 20" fill="none" xmlns="http://www.w3.org/2000/svg">
<g id="002-twitter 2">
<g id="Group">
<g id="Group_2">
<path id="Vector" d="M20.3401 3.79875C19.5963 4.125 18.8038 4.34125 17.9776 4.44625C18.8276 3.93875 19.4763 3.14125 19.7813 2.18C18.9888 2.6525 18.1138 2.98625 17.1813 3.1725C16.4288 2.37125 15.3563 1.875 14.1863 1.875C11.9163 1.875 10.0888 3.7175 10.0888 5.97625C10.0888 6.30125 10.1163 6.61375 10.1838 6.91125C6.77509 6.745 3.75884 5.11125 1.73259 2.6225C1.37884 3.23625 1.17134 3.93875 1.17134 4.695C1.17134 6.115 1.90259 7.37375 2.99259 8.1025C2.33384 8.09 1.68759 7.89875 1.14009 7.5975C1.14009 7.61 1.14009 7.62625 1.14009 7.6425C1.14009 9.635 2.56134 11.29 4.42509 11.6712C4.09134 11.7625 3.72759 11.8062 3.35009 11.8062C3.08759 11.8062 2.82259 11.7913 2.57384 11.7362C3.10509 13.36 4.61259 14.5538 6.40509 14.5925C5.01009 15.6838 3.23884 16.3412 1.32134 16.3412C0.985088 16.3412 0.662588 16.3263 0.340088 16.285C2.15634 17.4563 4.30884 18.125 6.63009 18.125C14.1751 18.125 18.3001 11.875 18.3001 6.4575C18.3001 6.27625 18.2938 6.10125 18.2851 5.9275C19.0988 5.35 19.7826 4.62875 20.3401 3.79875Z" fill="white"/>
</g>
</g>
</g>
</svg>
