<svg width="31" height="21" viewBox="0 0 31 21" fill="none" xmlns="http://www.w3.org/2000/svg">
<g id="005-youtube 1">
<path id="Vector" d="M29.2718 3.20472C28.9426 1.98098 27.9778 1.01632 26.7542 0.686803C24.5189 0.0751953 15.5775 0.0751953 15.5775 0.0751953C15.5775 0.0751953 6.63652 0.0751953 4.40122 0.663615C3.20119 0.992782 2.21282 1.98115 1.88366 3.20472C1.29541 5.43984 1.29541 10.0752 1.29541 10.0752C1.29541 10.0752 1.29541 14.7339 1.88366 16.9457C2.21317 18.1692 3.17766 19.1339 4.40139 19.4634C6.66005 20.0752 15.5779 20.0752 15.5779 20.0752C15.5779 20.0752 24.5189 20.0752 26.7542 19.4868C27.9779 19.1574 28.9426 18.1928 29.2721 16.9692C29.8602 14.7339 29.8602 10.0987 29.8602 10.0987C29.8602 10.0987 29.8837 5.43984 29.2718 3.20472ZM12.7308 14.3575V5.79289L20.166 10.0752L12.7308 14.3575Z" fill="white"/>
</g>
</svg>
